Coordinates
version=1
nRows=17
nColumns=24
inDegrees=yes

Units are S.I. units (second, meters, Newtons, ...)
Angles are in degrees.

endheader
time	pelvis_tilt	pelvis_list	pelvis_rotation	pelvis_tx	pelvis_ty	pelvis_tz	hip_flexion_r	hip_adduction_r	hip_rotation_r	knee_angle_r	ankle_angle_r	subtalar_angle_r	mtp_angle_r	hip_flexion_l	hip_adduction_l	hip_rotation_l	knee_angle_l	ankle_angle_l	subtalar_angle_l	mtp_angle_l	lumbar_extension	lumbar_bending	lumbar_rotation
      0.88266667	     -3.39427389	     -2.22246237	      2.31329517	     -0.16594750	      1.05495379	      0.29886051	     -2.45208625	      7.45799956	     -0.59857505	    -16.24903275	     11.25264687	    -11.90828364	     -2.25484294	     23.55597677	     -0.11851689	     -7.43078927	     -1.35060425	      7.43985651	      7.51007514	     -2.04132063	      4.28563162	      5.21810290	     -0.79654522
      0.88683333	     -3.41737509	     -2.21292021	      2.32313804	     -0.15987799	      1.05447749	      0.29853855	     -2.51705855	      7.39060827	     -0.79830694	    -16.78270316	     11.24881126	    -11.51958521	     -2.25666433	     23.45982079	     -0.03883799	     -7.31023009	     -1.29940855	      7.37066625	      8.00160794	     -2.06042791	      4.32017060	      5.29708703	     -0.78598345
      0.89100000	     -3.38207583	     -2.26981355	      2.29860596	     -0.15414720	      1.05405286	      0.29848936	     -2.59176252	      7.42413827	     -0.85051747	    -17.38232526	     11.20961192	    -11.45040684	     -2.25582795	     23.36071471	     -0.07339450	     -7.24210417	     -1.41185913	      7.34556154	      8.10217543	     -2.06261613	      4.38798527	      5.26721518	     -0.77824400
      0.89516667	     -3.36984753	     -2.29466551	      2.41254830	     -0.14822478	      1.05359050	      0.29805465	     -2.62951244	      7.39382650	     -1.22949089	    -18.01494614	     11.18119745	    -10.75126219	     -2.24236789	     23.30103989	     -0.00110386	     -7.11011267	     -1.60567831	      7.19827870	      8.67782826	     -2.07121348	      4.35599052	      5.31861171	     -0.75444793
      0.89933333	     -3.33486656	     -2.29827476	      2.34189977	     -0.14232455	      1.05324822	      0.29803657	     -2.66800499	      7.35253987	     -1.27026875	    -18.70655913	     11.13420630	    -10.69384687	     -2.23966088	     23.16898807	      0.00268814	     -7.00328968	     -1.80383922	      7.16769353	      8.76935039	     -2.07062395	      4.42454619	      5.29127056	     -0.75113833
      0.90350000	     -3.30829715	     -2.30231841	      2.42342393	     -0.13635924	      1.05285914	      0.29765119	     -2.67199988	      7.28888295	     -1.63080713	    -19.43638213	     11.04798490	     -9.96717544	     -2.21023017	     23.08488583	      0.07975794	     -6.84876603	     -2.10198505	      6.98594776	      9.17375355	     -2.06346626	      4.38403462	      5.29636325	     -0.73009956
      0.90766667	     -3.25803237	     -2.28275644	      2.34475009	     -0.13041202	      1.05258473	      0.29766861	     -2.67577390	      7.21369505	     -1.69657085	    -20.23101821	     10.97579064	     -9.90160284	     -2.20494268	     22.93184962	      0.09794296	     -6.71934670	     -2.39282269	      6.93241696	      9.25220922	     -2.06060664	      4.44622425	      5.25563068	     -0.72463734
      0.91183333	     -3.22262478	     -2.24885696	      2.40853142	     -0.12436701	      1.05226976	      0.29724483	     -2.63762718	      7.08791778	     -2.08405807	    -21.06730662	     10.82504008	     -9.09209698	     -2.14648816	     22.81059970	      0.21287489	     -6.47098988	     -2.72885637	      6.65961295	      9.46945738	     -2.03226402	      4.41976972	      5.26434936	     -0.70326016
      0.91600000	     -3.18124130	     -2.23618719	      2.42021792	     -0.11848929	      1.05198044	      0.29707538	     -2.56127900	      7.00383992	     -2.33397350	    -21.96909842	     10.64855630	     -8.73155065	     -2.10370434	     22.70567700	      0.26379134	     -6.31366690	     -3.13932506	      6.47625726	      9.47231078	     -2.00874718	      4.37514025	      5.16495646	     -0.68383345
      0.92016667	     -3.10119289	     -2.19109941	      2.34034114	     -0.11252751	      1.05182383	      0.29712061	     -2.50789647	      6.88753109	     -2.44864152	    -22.92977272	     10.51539824	     -8.66088092	     -2.09491437	     22.51333773	      0.30047886	     -6.16839421	     -3.51273631	      6.38953700	      9.52031129	     -2.00339743	      4.43803583	      5.10966109	     -0.67512997
      0.92433333	     -3.09412939	     -2.14884750	      2.43395884	     -0.10652583	      1.05152738	      0.29666071	     -2.34094273	      6.73409713	     -2.90693868	    -23.91316202	     10.01710583	     -7.96243548	     -2.03199147	     22.43721647	      0.43272003	     -5.91325689	     -3.94552786	      5.96578074	      9.43315621	     -1.97293925	      4.34433876	      5.01412090	     -0.63427561
      0.92850000	     -3.04427590	     -2.07653334	      2.44081600	     -0.10051563	      1.05135960	      0.29633425	     -2.18893442	      6.54018785	     -3.25881004	    -24.97686408	      9.67047810	     -7.38990152	     -1.94496051	     22.27013444	      0.56013112	     -5.60551837	     -4.32218654	      5.61414974	      9.15962495	     -1.92819881	      4.33696896	      4.92800818	     -0.60801849
      0.93266667	     -3.00278062	     -1.95801959	      2.35223526	     -0.09440633	      1.05126040	      0.29619483	     -2.00080042	      6.29218626	     -3.50764906	    -26.11489416	      9.42251423	     -7.20580221	     -1.90754501	     22.07642632	      0.69252503	     -5.42455681	     -4.67716709	      5.44190445	      9.07381498	     -1.90859520	      4.30925883	      4.85893846	     -0.60201286
      0.93683333	     -2.92672814	     -1.91821302	      2.43415546	     -0.08855535	      1.05114620	      0.29582355	     -1.80714246	      6.13070850	     -3.89512456	    -27.24910368	      8.73263098	     -6.49806199	     -1.78565300	     21.91506475	      0.80170013	     -5.05413763	     -5.10814270	      4.90923636	      8.53906938	     -1.85287717	      4.31263718	      4.71349610	     -0.55536957
      0.94100000	     -2.86119470	     -1.77917241	      2.39096670	     -0.08247047	      1.05114002	      0.29531237	     -1.57781096	      5.80565394	     -4.26783348	    -28.48187558	      8.21229031	     -5.92633771	     -1.54714639	     21.65183811	      1.01030261	     -4.48610864	     -5.36512617	      4.37930529	      7.59933935	     -1.73912059	      4.35296971	      4.66943509	     -0.54212485
      0.94516667	     -2.81289843	     -1.67292244	      2.38416721	     -0.07651590	      1.05109269	      0.29497082	     -1.28767978	      5.53513894	     -4.63988312	    -29.76408403	      7.63164074	     -5.56058589	     -1.30487906	     21.46982723	      1.16548291	     -4.15430246	     -5.74195431	      3.99295832	      7.01460599	     -1.62389832	      4.32388169	      4.53500099	     -0.53255943
      0.94933333	     -2.75121677	     -1.53566584	      2.33984448	     -0.07052771	      1.05111353	      0.29478094	     -0.98111029	      5.23325688	     -4.97805268	    -31.12084249	      7.27590933	     -5.43702724	     -1.25632300	     21.28382974	      1.32044534	     -4.08255382	     -6.16391740	      3.84819702	      6.93969016	     -1.60198279	      4.21312716	      4.38427190	     -0.52351334
